<svg xmlns="http://www.w3.org/2000/svg" width="16.444" height="16.444" viewBox="0 0 16.444 16.444"><defs><style>.a{fill:#4f317f;}</style></defs><path class="a" d="M16.175,7.76l.262-1.468A.44.44,0,0,0,16,5.774H13.258l.537-3.006a.44.44,0,0,0-.434-.518H11.869a.44.44,0,0,0-.434.363l-.564,3.161H7.251l.537-3.006a.44.44,0,0,0-.434-.518H5.863a.44.44,0,0,0-.434.363L4.865,5.774h-2.9a.44.44,0,0,0-.434.363L1.265,7.605a.44.44,0,0,0,.434.518H4.445l-.839,4.7H.7a.44.44,0,0,0-.434.363L.007,14.653a.44.44,0,0,0,.434.518H3.187L2.65,18.176a.44.44,0,0,0,.434.518H4.575a.44.44,0,0,0,.434-.363l.564-3.161h3.62l-.537,3.006a.44.44,0,0,0,.434.518h1.491a.44.44,0,0,0,.434-.363l.564-3.161h2.9a.44.44,0,0,0,.434-.363l.262-1.468a.44.44,0,0,0-.434-.518H12l.839-4.7h2.9a.44.44,0,0,0,.434-.363ZM9.613,12.821H5.992l.839-4.7h3.62Z" transform="translate(0 -2.25)"/></svg>